# xmcd
#
# Track frame offsets: 
#        150
#        11760
#        23377
#        33675
#        43220
#        54652
#        66497
#        77272
#        89427
#        99472
#        111087
#        122112
#        132805
#        144557
#        155005
#        166830
#        178472
#        188462
#        198615
#        210407
#
# Disc length: 2980 seconds
#
# Revision: 0
# Processed by: cddbd v1.4PL0 Copyright (c) Steve Scherf et al.
# Submitted via: ExactAudioCopy v0.90b4
#
DISCID=160ba214
DTITLE=Terry White - Terry White Sings Wanda Jackson
DYEAR=1900
DGENRE=Country
TTITLE0=If I Cried Every Time You Hurt Me
TTITLE1=Why I'm Walkin'
TTITLE2=It's Only Make Believe
TTITLE3=Long Tall Sally
TTITLE4=In The Middle Of A Heartache
TTITLE5=Just For You
TTITLE6=Making Believe
TTITLE7=I Cried Again
TTITLE8=Mean Mean Man
TTITLE9=Since I Met You Baby
TTITLE10=Tears Will Be The Chaser For Your Wine
TTITLE11=Is It Wrong
TTITLE12=The Things I Might Have Been
TTITLE13=Cool Love
TTITLE14=What In The World's Come Over You
TTITLE15=I May Never Get To Heaven
TTITLE16=Have You Ever Been Lonely
TTITLE17=Let's Have A Party
TTITLE18=Right Or Wrong
TTITLE19=Blues Stay Away From Me
EXTD=
EXTT0=
EXTT1=
EXTT2=
EXTT3=
EXTT4=
EXTT5=
EXTT6=
EXTT7=
EXTT8=
EXTT9=
EXTT10=
EXTT11=
EXTT12=
EXTT13=
EXTT14=
EXTT15=
EXTT16=
EXTT17=
EXTT18=
EXTT19=
PLAYORDER=
